<?xml version="1.0" encoding="UTF-8" standalone="no"?>
<svg
   xmlns:dc="http://purl.org/dc/elements/1.1/"
   xmlns:cc="http://creativecommons.org/ns#"
   xmlns:rdf="http://www.w3.org/1999/02/22-rdf-syntax-ns#"
   xmlns:svg="http://www.w3.org/2000/svg"
   xmlns="http://www.w3.org/2000/svg"
   xmlns:sodipodi="http://sodipodi.sourceforge.net/DTD/sodipodi-0.dtd"
   xmlns:inkscape="http://www.inkscape.org/namespaces/inkscape"
   height="48"
   viewBox="0 0 48 48"
   width="48"
   id="svg2"
   version="1.1"
   inkscape:version="0.91 r13725"
   sodipodi:docname="history.svg"
   inkscape:export-filename="/ifs/home/cancer/Lab_RDF/Personal/Antony/source_code/java/git/edu.columbia.rdf.matcalc/edu.columbia.rdf.matcalc/src/main/resources/res/icons/history_24_24.png"
   inkscape:export-xdpi="45"
   inkscape:export-ydpi="45">
  <metadata
     id="metadata12">
    <rdf:RDF>
      <cc:Work
         rdf:about="">
        <dc:format>image/svg+xml</dc:format>
        <dc:type
           rdf:resource="http://purl.org/dc/dcmitype/StillImage" />
      </cc:Work>
    </rdf:RDF>
  </metadata>
  <defs
     id="defs10" />
  <sodipodi:namedview
     pagecolor="#ffffff"
     bordercolor="#666666"
     borderopacity="1"
     objecttolerance="10"
     gridtolerance="10"
     guidetolerance="10"
     inkscape:pageopacity="0"
     inkscape:pageshadow="2"
     inkscape:window-width="1135"
     inkscape:window-height="604"
     id="namedview8"
     showgrid="false"
     inkscape:zoom="4.9166667"
     inkscape:cx="24"
     inkscape:cy="24"
     inkscape:window-x="583"
     inkscape:window-y="365"
     inkscape:window-maximized="0"
     inkscape:current-layer="svg2" />
  <path
     d="M0 0h48v48h-48z"
     fill="none"
     id="path4" />
  <path
     d="M25.99 6c-9.95 0-17.99 8.06-17.99 18h-6l7.79 7.79.14.29 8.07-8.08h-6c0-7.73 6.27-14 14-14s14 6.27 14 14-6.27 14-14 14c-3.87 0-7.36-1.58-9.89-4.11l-2.83 2.83c3.25 3.26 7.74 5.28 12.71 5.28 9.95 0 18.01-8.06 18.01-18s-8.06-18-18.01-18zm-1.99 10v10l8.56 5.08 1.44-2.43-7-4.15v-8.5h-3z"
     opacity=".9"
     id="path6"
     style="fill:#808080" />
</svg>
